{
    "asset" : {
        "generator" : "Khronos glTF Blender I/O v1.6.16",
        "version" : "2.0"
    },
    "scene" : 0,
    "scenes" : [
        {
            "name" : "Scene",
            "nodes" : [
                11
            ]
        }
    ],
    "nodes" : [
        {
            "name" : "car_body_jnt",
            "translation" : [
                0,
                1.6893563270568848,
                0
            ]
        },
        {
            "name" : "car_front_left_jnt",
            "translation" : [
                6.858219146728516,
                -3.112404556304682e-08,
                8.86945629119873
            ]
        },
        {
            "name" : "car_front_right_jnt",
            "translation" : [
                -6.774619102478027,
                -3.112404556304682e-08,
                8.86945629119873
            ]
        },
        {
            "name" : "car_back_left_jnt",
            "translation" : [
                6.858219146728516,
                -9.560080798109993e-07,
                -10.009788513183594
            ]
        },
        {
            "name" : "car_back_right_jnt",
            "translation" : [
                -6.774619102478027,
                -9.560080798109993e-07,
                -10.009788513183594
            ]
        },
        {
            "children" : [
                0,
                1,
                2,
                3,
                4
            ],
            "name" : "car_base_jnt",
            "rotation" : [
                1.0033481601112726e-07,
                0,
                0,
                1
            ],
            "translation" : [
                6.247719254112456e-16,
                2.813722610473633,
                4.5841358087272965e-07
            ]
        },
        {
            "mesh" : 0,
            "name" : "CarBackLeftWheel",
            "skin" : 0
        },
        {
            "mesh" : 1,
            "name" : "CarBackRightWheel",
            "skin" : 0
        },
        {
            "mesh" : 2,
            "name" : "CarBody",
            "skin" : 0
        },
        {
            "mesh" : 3,
            "name" : "CarFrontLeftWheel",
            "skin" : 0
        },
        {
            "mesh" : 4,
            "name" : "CarFrontRightWheel",
            "skin" : 0
        },
        {
            "children" : [
                6,
                7,
                8,
                9,
                10,
                5
            ],
            "name" : "Armature",
            "scale" : [
                0.009999999776482582,
                0.009999999776482582,
                0.009999999776482582
            ]
        }
    ],
    "materials" : [
        {
            "alphaMode" : "BLEND",
            "doubleSided" : true,
            "name" : "M_Car",
            "normalTexture" : {
                "index" : 0
            },
            "occlusionTexture" : {
                "index" : 1
            },
            "pbrMetallicRoughness" : {
                "baseColorTexture" : {
                    "index" : 2
                },
                "metallicRoughnessTexture" : {
                    "index" : 1
                }
            }
        }
    ],
    "meshes" : [
        {
            "name" : "Mesh.004",
            "primitives" : [
                {
                    "attributes" : {
                        "POSITION" : 0,
                        "NORMAL" : 1,
                        "TEXCOORD_0" : 2,
                        "JOINTS_0" : 3,
                        "WEIGHTS_0" : 4
                    },
                    "indices" : 5,
                    "material" : 0
                }
            ]
        },
        {
            "name" : "Mesh.003",
            "primitives" : [
                {
                    "attributes" : {
                        "POSITION" : 7,
                        "NORMAL" : 8,
                        "TEXCOORD_0" : 9,
                        "JOINTS_0" : 10,
                        "WEIGHTS_0" : 11
                    },
                    "indices" : 12,
                    "material" : 0
                }
            ]
        },
        {
            "name" : "Mesh",
            "primitives" : [
                {
                    "attributes" : {
                        "POSITION" : 13,
                        "NORMAL" : 14,
                        "TEXCOORD_0" : 15,
                        "JOINTS_0" : 16,
                        "WEIGHTS_0" : 17
                    },
                    "indices" : 18,
                    "material" : 0
                }
            ]
        },
        {
            "name" : "Mesh.001",
            "primitives" : [
                {
                    "attributes" : {
                        "POSITION" : 19,
                        "NORMAL" : 20,
                        "TEXCOORD_0" : 21,
                        "JOINTS_0" : 22,
                        "WEIGHTS_0" : 23
                    },
                    "indices" : 24,
                    "material" : 0
                }
            ]
        },
        {
            "name" : "Mesh.002",
            "primitives" : [
                {
                    "attributes" : {
                        "POSITION" : 25,
                        "NORMAL" : 26,
                        "TEXCOORD_0" : 27,
                        "JOINTS_0" : 28,
                        "WEIGHTS_0" : 29
                    },
                    "indices" : 30,
                    "material" : 0
                }
            ]
        }
    ],
    "textures" : [
        {
            "sampler" : 0,
            "source" : 0
        },
        {
            "sampler" : 0,
            "source" : 1
        },
        {
            "sampler" : 0,
            "source" : 2
        }
    ],
    "images" : [
        {
            "bufferView" : 6,
            "mimeType" : "image/jpeg",
            "name" : "T_Car_Normal"
        },
        {
            "bufferView" : 7,
            "mimeType" : "image/jpeg",
            "name" : "T_Car_ORM"
        },
        {
            "bufferView" : 8,
            "mimeType" : "image/jpeg",
            "name" : "T_Car"
        }
    ],
    "skins" : [
        {
            "inverseBindMatrices" : 6,
            "joints" : [
                5,
                0,
                1,
                2,
                3,
                4
            ],
            "name" : "Armature"
        }
    ],
    "accessors" : [
        {
            "bufferView" : 0,
            "componentType" : 5126,
            "count" : 50,
            "max" : [
                0.07520108669996262,
                0.05515432730317116,
                -0.07308077067136765
            ],
            "min" : [
                0.06020110100507736,
                0.001120156841352582,
                -0.12711495161056519
            ],
            "type" : "VEC3"
        },
        {
            "bufferView" : 1,
            "componentType" : 5126,
            "count" : 50,
            "type" : "VEC3"
        },
        {
            "bufferView" : 2,
            "componentType" : 5126,
            "count" : 50,
            "type" : "VEC2"
        },
        {
            "bufferView" : 3,
            "componentType" : 5121,
            "count" : 50,
            "type" : "VEC4"
        },
        {
            "bufferView" : 4,
            "componentType" : 5126,
            "count" : 50,
            "type" : "VEC4"
        },
        {
            "bufferView" : 5,
            "componentType" : 5123,
            "count" : 96,
            "type" : "SCALAR"
        },
        {
            "bufferView" : 9,
            "componentType" : 5126,
            "count" : 6,
            "type" : "MAT4"
        },
        {
            "bufferView" : 10,
            "componentType" : 5126,
            "count" : 50,
            "max" : [
                -0.06063644215464592,
                0.05515432730317116,
                -0.07308077067136765
            ],
            "min" : [
                -0.07563645392656326,
                0.001120156841352582,
                -0.12711495161056519
            ],
            "type" : "VEC3"
        },
        {
            "bufferView" : 11,
            "componentType" : 5126,
            "count" : 50,
            "type" : "VEC3"
        },
        {
            "bufferView" : 12,
            "componentType" : 5126,
            "count" : 50,
            "type" : "VEC2"
        },
        {
            "bufferView" : 13,
            "componentType" : 5121,
            "count" : 50,
            "type" : "VEC4"
        },
        {
            "bufferView" : 14,
            "componentType" : 5126,
            "count" : 50,
            "type" : "VEC4"
        },
        {
            "bufferView" : 15,
            "componentType" : 5123,
            "count" : 96,
            "type" : "SCALAR"
        },
        {
            "bufferView" : 16,
            "componentType" : 5126,
            "count" : 744,
            "max" : [
                0.080418162047863,
                0.11116059124469757,
                0.17132548987865448
            ],
            "min" : [
                -0.0804181769490242,
                0.02274910919368267,
                -0.1713254749774933
            ],
            "type" : "VEC3"
        },
        {
            "bufferView" : 17,
            "componentType" : 5126,
            "count" : 744,
            "type" : "VEC3"
        },
        {
            "bufferView" : 18,
            "componentType" : 5126,
            "count" : 744,
            "type" : "VEC2"
        },
        {
            "bufferView" : 19,
            "componentType" : 5121,
            "count" : 744,
            "type" : "VEC4"
        },
        {
            "bufferView" : 20,
            "componentType" : 5126,
            "count" : 744,
            "type" : "VEC4"
        },
        {
            "bufferView" : 21,
            "componentType" : 5123,
            "count" : 1278,
            "type" : "SCALAR"
        },
        {
            "bufferView" : 22,
            "componentType" : 5126,
            "count" : 50,
            "max" : [
                0.07542935013771057,
                0.05515429750084877,
                0.11552155762910843
            ],
            "min" : [
                0.060429371893405914,
                0.001120127271860838,
                0.06148739159107208
            ],
            "type" : "VEC3"
        },
        {
            "bufferView" : 23,
            "componentType" : 5126,
            "count" : 50,
            "type" : "VEC3"
        },
        {
            "bufferView" : 24,
            "componentType" : 5126,
            "count" : 50,
            "type" : "VEC2"
        },
        {
            "bufferView" : 25,
            "componentType" : 5121,
            "count" : 50,
            "type" : "VEC4"
        },
        {
            "bufferView" : 26,
            "componentType" : 5126,
            "count" : 50,
            "type" : "VEC4"
        },
        {
            "bufferView" : 27,
            "componentType" : 5123,
            "count" : 96,
            "type" : "SCALAR"
        },
        {
            "bufferView" : 28,
            "componentType" : 5126,
            "count" : 50,
            "max" : [
                -0.06040817126631737,
                0.05515429750084877,
                0.11552155762910843
            ],
            "min" : [
                -0.07540818303823471,
                0.001120127271860838,
                0.06148739159107208
            ],
            "type" : "VEC3"
        },
        {
            "bufferView" : 29,
            "componentType" : 5126,
            "count" : 50,
            "type" : "VEC3"
        },
        {
            "bufferView" : 30,
            "componentType" : 5126,
            "count" : 50,
            "type" : "VEC2"
        },
        {
            "bufferView" : 31,
            "componentType" : 5121,
            "count" : 50,
            "type" : "VEC4"
        },
        {
            "bufferView" : 32,
            "componentType" : 5126,
            "count" : 50,
            "type" : "VEC4"
        },
        {
            "bufferView" : 33,
            "componentType" : 5123,
            "count" : 96,
            "type" : "SCALAR"
        }
    ],
    "bufferViews" : [
        {
            "buffer" : 0,
            "byteLength" : 600,
            "byteOffset" : 0
        },
        {
            "buffer" : 0,
            "byteLength" : 600,
            "byteOffset" : 600
        },
        {
            "buffer" : 0,
            "byteLength" : 400,
            "byteOffset" : 1200
        },
        {
            "buffer" : 0,
            "byteLength" : 200,
            "byteOffset" : 1600
        },
        {
            "buffer" : 0,
            "byteLength" : 800,
            "byteOffset" : 1800
        },
        {
            "buffer" : 0,
            "byteLength" : 192,
            "byteOffset" : 2600
        },
        {
            "buffer" : 0,
            "byteLength" : 722233,
            "byteOffset" : 2792
        },
        {
            "buffer" : 0,
            "byteLength" : 274081,
            "byteOffset" : 725028
        },
        {
            "buffer" : 0,
            "byteLength" : 630284,
            "byteOffset" : 999112
        },
        {
            "buffer" : 0,
            "byteLength" : 384,
            "byteOffset" : 1629396
        },
        {
            "buffer" : 0,
            "byteLength" : 600,
            "byteOffset" : 1629780
        },
        {
            "buffer" : 0,
            "byteLength" : 600,
            "byteOffset" : 1630380
        },
        {
            "buffer" : 0,
            "byteLength" : 400,
            "byteOffset" : 1630980
        },
        {
            "buffer" : 0,
            "byteLength" : 200,
            "byteOffset" : 1631380
        },
        {
            "buffer" : 0,
            "byteLength" : 800,
            "byteOffset" : 1631580
        },
        {
            "buffer" : 0,
            "byteLength" : 192,
            "byteOffset" : 1632380
        },
        {
            "buffer" : 0,
            "byteLength" : 8928,
            "byteOffset" : 1632572
        },
        {
            "buffer" : 0,
            "byteLength" : 8928,
            "byteOffset" : 1641500
        },
        {
            "buffer" : 0,
            "byteLength" : 5952,
            "byteOffset" : 1650428
        },
        {
            "buffer" : 0,
            "byteLength" : 2976,
            "byteOffset" : 1656380
        },
        {
            "buffer" : 0,
            "byteLength" : 11904,
            "byteOffset" : 1659356
        },
        {
            "buffer" : 0,
            "byteLength" : 2556,
            "byteOffset" : 1671260
        },
        {
            "buffer" : 0,
            "byteLength" : 600,
            "byteOffset" : 1673816
        },
        {
            "buffer" : 0,
            "byteLength" : 600,
            "byteOffset" : 1674416
        },
        {
            "buffer" : 0,
            "byteLength" : 400,
            "byteOffset" : 1675016
        },
        {
            "buffer" : 0,
            "byteLength" : 200,
            "byteOffset" : 1675416
        },
        {
            "buffer" : 0,
            "byteLength" : 800,
            "byteOffset" : 1675616
        },
        {
            "buffer" : 0,
            "byteLength" : 192,
            "byteOffset" : 1676416
        },
        {
            "buffer" : 0,
            "byteLength" : 600,
            "byteOffset" : 1676608
        },
        {
            "buffer" : 0,
            "byteLength" : 600,
            "byteOffset" : 1677208
        },
        {
            "buffer" : 0,
            "byteLength" : 400,
            "byteOffset" : 1677808
        },
        {
            "buffer" : 0,
            "byteLength" : 200,
            "byteOffset" : 1678208
        },
        {
            "buffer" : 0,
            "byteLength" : 800,
            "byteOffset" : 1678408
        },
        {
            "buffer" : 0,
            "byteLength" : 192,
            "byteOffset" : 1679208
        }
    ],
    "samplers" : [
        {
            "magFilter" : 9729,
            "minFilter" : 9987
        }
    ],
    "buffers" : [
        {
            "byteLength" : 1679400,
            "uri" : "data:application/octet-stream;base64,"
        }
    ]
}
